# 
# Generated by Sweet Home 3D - Mon Aug 10 16:36:46 EEST 2020
# http://www.sweethome3d.com/
# 
mtllib wall10Arc.mtl
g wall_1_1
usemtl wall_1_1
v 990.0187 0.0 -0.61052036
v 986.36304 0.0 36.258305
v 979.93744 0.0 72.74645
v 970.7783 0.0 108.646225
v 958.93805 0.0 143.75293
v 944.48395 0.0 177.86674
v 927.4983 0.0 210.79338
v 908.07794 0.0 242.34529
v 886.33344 0.0 272.3428
v 862.3887 0.0 300.61505
v 836.3799 0.0 327.001
v 808.4554 0.0 351.35043
v 778.77405 0.0 373.5246
v 747.50507 0.0 393.39725
v 714.82635 0.0 410.85522
v 680.9242 0.0 425.799
v 645.9915 0.0 438.1436
v 610.2275 0.0 447.81857
v 573.83563 0.0 454.76892
v 537.02325 0.0 458.95505
v 500.00003 0.0 460.35306
v 462.9768 0.0 458.95505
v 426.1644 0.0 454.76892
v 389.77255 0.0 447.8186
v 354.00848 0.0 438.1436
v 319.0759 0.0 425.79904
v 285.17368 0.0 410.85522
v 252.49503 0.0 393.39728
v 221.226 0.0 373.52463
v 191.5447 0.0 351.35046
v 163.62015 0.0 327.00107
v 137.6114 0.0 300.6151
v 113.666595 0.0 272.34286
v 91.92208 0.0 242.34535
v 72.50172 0.0 210.79344
v 55.51606 0.0 177.86671
v 41.06195 0.0 143.7529
v 29.221653 0.0 108.64619
v 20.062603 0.0 72.74652
v 13.636966 0.0 36.258377
v 9.981337 0.0 -0.61044633
v -0.0000114 0.0 0.0000395
v 3.7300804 0.0 37.619858
v 10.286604 0.0 74.85124
v 19.632217 0.0 111.482155
v 31.713694 0.0 147.30396
v 46.462223 0.0 182.11266
v 63.79387 0.0 215.71008
v 83.60981 0.0 247.9047
v 105.79724 0.0 278.5132
v 130.2298 0.0 307.36136
v 156.76831 0.0 334.2848
v 185.26166 0.0 359.13016
v 215.54756 0.0 381.75598
v 247.45352 0.0 402.03345
v 280.7978 0.0 419.847
v 315.3906 0.0 435.0952
v 351.03473 0.0 447.6912
v 387.52728 0.0 457.5633
v 424.6604 0.0 464.65518
v 462.22266 0.0 468.92657
v 500.00003 0.0 470.35306
v 537.7774 0.0 468.92657
v 575.3396 0.0 464.65518
v 612.4728 0.0 457.56326
v 648.9653 0.0 447.6912
v 684.6095 0.0 435.09515
v 719.2022 0.0 419.847
v 752.5466 0.0 402.0334
v 784.4525 0.0 381.75595
v 814.7384 0.0 359.13013
v 843.2317 0.0 334.28473
v 869.77026 0.0 307.3613
v 894.20276 0.0 278.51315
v 916.39026 0.0 247.90463
v 936.2062 0.0 215.71002
v 953.5378 0.0 182.1127
v 968.28625 0.0 147.304
v 980.3678 0.0 111.48219
v 989.71344 0.0 74.851166
v 996.2699 0.0 37.61978
v 1000.0 0.0 -0.000036
vn 0.0 -1.0 0.0
vn 0.0 0.0 0.0
f 2//1 1//1 82//1
f 2//1 82//1 81//1
f 2//1 81//1 80//1
f 2//1 80//1 79//1
f 2//1 79//1 78//1
f 3//1 2//1 78//1
f 3//1 78//1 77//1
f 4//1 3//1 77//1
f 4//1 77//1 76//1
f 5//1 4//1 76//1
f 5//1 76//1 75//1
f 6//1 5//1 75//1
f 6//1 75//1 74//1
f 7//1 6//1 74//1
f 7//1 74//1 73//1
f 8//1 7//1 73//1
f 8//1 73//1 72//1
f 9//1 8//1 72//1
f 9//1 72//1 71//1
f 10//1 9//1 71//1
f 10//1 71//1 70//1
f 11//1 10//1 70//1
f 11//1 70//1 69//1
f 12//1 11//1 69//1
f 12//1 69//1 68//1
f 13//1 12//1 68//1
f 13//1 68//1 67//1
f 14//1 13//1 67//1
f 14//1 67//1 66//1
f 15//1 14//1 66//1
f 15//1 66//1 65//1
f 16//1 15//1 65//1
f 16//1 65//1 64//1
f 17//1 16//1 64//1
f 17//1 64//1 63//1
f 18//1 17//1 63//1
f 18//1 63//1 62//1
f 19//1 18//1 62//1
f 19//1 62//1 61//1
f 20//1 19//1 61//1
f 20//1 61//1 60//1
f 21//1 20//1 60//1
f 21//1 60//1 59//1
f 22//1 21//1 59//1
f 22//1 59//1 58//1
f 23//1 22//1 58//1
f 23//1 58//1 57//1
f 24//1 23//1 57//1
f 24//1 57//1 56//1
f 25//1 24//1 56//1
f 25//1 56//1 55//1
f 26//1 25//1 55//1
f 26//1 55//1 54//1
f 27//1 26//1 54//1
f 27//1 54//1 53//1
f 28//1 27//1 53//1
f 28//1 53//1 52//1
f 29//1 28//1 52//1
f 29//1 52//1 51//1
f 30//1 29//1 51//1
f 30//1 51//1 50//1
f 31//1 30//1 50//1
f 31//1 50//1 49//1
f 32//1 31//1 49//1
f 32//1 49//1 48//1
f 33//1 32//1 48//1
f 33//1 48//1 47//1
f 34//1 33//1 47//1
f 34//1 47//1 46//1
f 35//1 34//1 46//1
f 35//1 46//1 45//1
f 36//1 35//1 45//1
f 36//1 45//1 44//1
f 37//1 36//1 44//1
f 37//1 44//1 43//1
f 38//1 37//1 43//1
f 38//1 43//1 42//1
f 39//1 38//1 42//1
f 40//1 39//1 42//1
f 40//1 42//1 41//1
g wall_1_2
usemtl wall_1_1
v -9.9813595 0.0 0.6105253
v -6.176805 0.0 38.981335
v 0.51060456 0.0 76.95596
v 10.042781 0.0 114.31812
v 22.365437 0.0 150.85503
v 37.408386 0.0 186.3586
v 55.08602 0.0 220.62672
v 75.29754 0.0 253.46402
v 97.927895 0.0 284.68356
v 122.84819 0.0 314.1076
v 149.91649 0.0 341.56848
v 178.97864 0.0 366.90985
v 209.86913 0.0 389.98737
v 242.412 0.0 410.6696
v 276.42194 0.0 428.83875
v 311.7053 0.0 444.39136
v 348.06097 0.0 457.2388
v 385.282 0.0 467.30795
v 423.15643 0.0 474.54144
v 461.46854 0.0 478.8981
v 500.00003 0.0 480.35306
v 538.53156 0.0 478.89807
v 576.84357 0.0 474.54144
v 614.718 0.0 467.30795
v 651.939 0.0 457.2388
v 688.2948 0.0 444.39133
v 723.57806 0.0 428.83875
v 757.5881 0.0 410.66956
v 790.1309 0.0 389.9873
v 821.0214 0.0 366.9098
v 850.08356 0.0 341.56842
v 877.15186 0.0 314.10754
v 902.07214 0.0 284.6835
v 924.7025 0.0 253.46396
v 944.914 0.0 220.62666
v 962.5916 0.0 186.35864
v 977.6345 0.0 150.85507
v 989.9572 0.0 114.31817
v 999.48944 0.0 76.95589
v 1006.1768 0.0 38.98126
v 1009.9814 0.0 0.6104483
f 81//1 82//1 123//1
f 81//1 123//1 122//1
f 81//1 122//1 121//1
f 81//1 121//1 120//1
f 81//1 120//1 119//1
f 80//1 81//1 119//1
f 80//1 119//1 118//1
f 79//1 80//1 118//1
f 79//1 118//1 117//1
f 78//1 79//1 117//1
f 78//1 117//1 116//1
f 77//1 78//1 116//1
f 77//1 116//1 115//1
f 76//1 77//1 115//1
f 76//1 115//1 114//1
f 75//1 76//1 114//1
f 75//1 114//1 113//1
f 74//1 75//1 113//1
f 74//1 113//1 112//1
f 73//1 74//1 112//1
f 73//1 112//1 111//1
f 72//1 73//1 111//1
f 72//1 111//1 110//1
f 71//1 72//1 110//1
f 71//1 110//1 109//1
f 70//1 71//1 109//1
f 70//1 109//1 108//1
f 69//1 70//1 108//1
f 69//1 108//1 107//1
f 68//1 69//1 107//1
f 68//1 107//1 106//1
f 67//1 68//1 106//1
f 67//1 106//1 105//1
f 66//1 67//1 105//1
f 66//1 105//1 104//1
f 65//1 66//1 104//1
f 65//1 104//1 103//1
f 64//1 65//1 103//1
f 64//1 103//1 102//1
f 63//1 64//1 102//1
f 63//1 102//1 101//1
f 62//1 63//1 101//1
f 62//1 101//1 100//1
f 61//1 62//1 100//1
f 61//1 100//1 99//1
f 60//1 61//1 99//1
f 60//1 99//1 98//1
f 59//1 60//1 98//1
f 59//1 98//1 97//1
f 58//1 59//1 97//1
f 58//1 97//1 96//1
f 57//1 58//1 96//1
f 57//1 96//1 95//1
f 56//1 57//1 95//1
f 56//1 95//1 94//1
f 55//1 56//1 94//1
f 55//1 94//1 93//1
f 54//1 55//1 93//1
f 54//1 93//1 92//1
f 53//1 54//1 92//1
f 53//1 92//1 91//1
f 52//1 53//1 91//1
f 52//1 91//1 90//1
f 51//1 52//1 90//1
f 51//1 90//1 89//1
f 50//1 51//1 89//1
f 50//1 89//1 88//1
f 49//1 50//1 88//1
f 49//1 88//1 87//1
f 48//1 49//1 87//1
f 48//1 87//1 86//1
f 47//1 48//1 86//1
f 47//1 86//1 85//1
f 46//1 47//1 85//1
f 46//1 85//1 84//1
f 45//1 46//1 84//1
f 45//1 84//1 83//1
f 44//1 45//1 83//1
f 43//1 44//1 83//1
f 43//1 83//1 42//1
g wall_1_3
usemtl wall_1_1
v 986.36304 350.0 36.258305
v 990.0187 350.0 -0.61052036
v 979.93744 350.0 72.74645
v 970.7783 350.0 108.646225
v 958.93805 350.0 143.75293
v 944.48395 350.0 177.86674
v 927.4983 350.0 210.79338
v 908.07794 350.0 242.34529
v 886.33344 350.0 272.3428
v 862.3887 350.0 300.61505
v 836.3799 350.0 327.001
v 808.4554 350.0 351.35043
v 778.77405 350.0 373.5246
v 747.50507 350.0 393.39725
v 714.82635 350.0 410.85522
v 680.9242 350.0 425.799
v 645.9915 350.0 438.1436
v 610.2275 350.0 447.81857
v 573.83563 350.0 454.76892
v 537.02325 350.0 458.95505
v 500.00003 350.0 460.35306
v 462.9768 350.0 458.95505
v 426.1644 350.0 454.76892
v 389.77255 350.0 447.8186
v 354.00848 350.0 438.1436
v 319.0759 350.0 425.79904
v 285.17368 350.0 410.85522
v 252.49503 350.0 393.39728
v 221.226 350.0 373.52463
v 191.5447 350.0 351.35046
v 163.62015 350.0 327.00107
v 137.6114 350.0 300.6151
v 113.666595 350.0 272.34286
v 91.92208 350.0 242.34535
v 72.50172 350.0 210.79344
v 55.51606 350.0 177.86671
v 41.06195 350.0 143.7529
v 29.221653 350.0 108.64619
v 20.062603 350.0 72.74652
v 13.636966 350.0 36.258377
v 9.981337 350.0 -0.61044633
v -0.0000114 350.0 0.0000395
v 1000.0 350.0 -0.000036
vn -0.99512035 0.0 -0.09866876
vn -0.99068856 0.0 -0.13614748
vn -0.9775999 0.0 -0.21047173
vn -0.9589435 0.0 -0.28359714
vn -0.9348259 0.0 -0.35510653
vn -0.90538347 0.0 -0.4245949
vn -0.8707848 0.0 -0.49166426
vn -0.8312272 0.0 -0.5559328
vn -0.7869354 0.0 -0.6170353
vn -0.7381611 0.0 -0.6746245
vn -0.68518305 0.0 -0.7283709
vn -0.6283028 0.0 -0.7779689
vn -0.5678438 0.0 -0.8231363
vn -0.5041512 0.0 -0.8636154
vn -0.43758655 0.0 -0.8991763
vn -0.36852992 0.0 -0.92961586
vn -0.29737467 0.0 -0.95476085
vn -0.22452584 0.0 -0.9744681
vn -0.15039846 0.0 -0.98862547
vn -0.07541395 0.0 -0.9971523
vn 0.0 0.0 -1.0
vn 0.07541391 0.0 -0.9971524
vn 0.15039802 0.0 -0.9886255
vn 0.22452573 0.0 -0.9744682
vn 0.29737496 0.0 -0.95476085
vn 0.36852998 0.0 -0.92961586
vn 0.4375866 0.0 -0.89917624
vn 0.504151 0.0 -0.86361563
vn 0.56784374 0.0 -0.82313645
vn 0.6283024 0.0 -0.7779692
vn 0.68518287 0.0 -0.7283711
vn 0.738161 0.0 -0.67462456
vn 0.78693503 0.0 -0.6170358
vn 0.83122706 0.0 -0.555933
vn 0.870785 0.0 -0.49166393
vn 0.9053837 0.0 -0.42459455
vn 0.9348257 0.0 -0.35510686
vn 0.95894355 0.0 -0.2835969
vn 0.9775999 0.0 -0.21047175
vn 0.9906885 0.0 -0.13614786
vn 0.99512035 0.0 -0.09866848
vn -0.061048575 0.0 -0.9981348
vn 0.06104859 0.0 -0.9981348
f 1//3 2//4 124//4 125//3
f 2//4 3//5 126//5 124//4
f 3//5 4//6 127//6 126//5
f 4//6 5//7 128//7 127//6
f 5//7 6//8 129//8 128//7
f 6//8 7//9 130//9 129//8
f 7//9 8//10 131//10 130//9
f 8//10 9//11 132//11 131//10
f 9//11 10//12 133//12 132//11
f 10//12 11//13 134//13 133//12
f 11//13 12//14 135//14 134//13
f 12//14 13//15 136//15 135//14
f 13//15 14//16 137//16 136//15
f 14//16 15//17 138//17 137//16
f 15//17 16//18 139//18 138//17
f 16//18 17//19 140//19 139//18
f 17//19 18//20 141//20 140//19
f 18//20 19//21 142//21 141//20
f 19//21 20//22 143//22 142//21
f 20//22 21//23 144//23 143//22
f 21//23 22//24 145//24 144//23
f 22//24 23//25 146//25 145//24
f 23//25 24//26 147//26 146//25
f 24//26 25//27 148//27 147//26
f 25//27 26//28 149//28 148//27
f 26//28 27//29 150//29 149//28
f 27//29 28//30 151//30 150//29
f 28//30 29//31 152//31 151//30
f 29//31 30//32 153//32 152//31
f 30//32 31//33 154//33 153//32
f 31//33 32//34 155//34 154//33
f 32//34 33//35 156//35 155//34
f 33//35 34//36 157//36 156//35
f 34//36 35//37 158//37 157//36
f 35//37 36//38 159//38 158//37
f 36//38 37//39 160//39 159//38
f 37//39 38//40 161//40 160//39
f 38//40 39//41 162//41 161//40
f 39//41 40//42 163//42 162//41
f 40//42 41//43 164//43 163//42
f 41//44 42//44 165//44 164//44
f 82//45 1//45 125//45 166//45
g wall_1_4
usemtl wall_1_1
v -9.9813595 350.0 0.6105253
v -6.176805 350.0 38.981335
v 0.51060456 350.0 76.95596
v 10.042781 350.0 114.31812
v 22.365437 350.0 150.85503
v 37.408386 350.0 186.3586
v 55.08602 350.0 220.62672
v 75.29754 350.0 253.46402
v 97.927895 350.0 284.68356
v 122.84819 350.0 314.1076
v 149.91649 350.0 341.56848
v 178.97864 350.0 366.90985
v 209.86913 350.0 389.98737
v 242.412 350.0 410.6696
v 276.42194 350.0 428.83875
v 311.7053 350.0 444.39136
v 348.06097 350.0 457.2388
v 385.282 350.0 467.30795
v 423.15643 350.0 474.54144
v 461.46854 350.0 478.8981
v 500.00003 350.0 480.35306
v 538.53156 350.0 478.89807
v 576.84357 350.0 474.54144
v 614.718 350.0 467.30795
v 651.939 350.0 457.2388
v 688.2948 350.0 444.39133
v 723.57806 350.0 428.83875
v 757.5881 350.0 410.66956
v 790.1309 350.0 389.9873
v 821.0214 350.0 366.9098
v 850.08356 350.0 341.56842
v 877.15186 350.0 314.10754
v 902.07214 350.0 284.6835
v 924.7025 350.0 253.46396
v 944.914 350.0 220.62666
v 962.5916 350.0 186.35864
v 977.6345 350.0 150.85507
v 989.9572 350.0 114.31817
v 999.48944 350.0 76.95589
v 1006.1768 350.0 38.98126
v 1009.9814 350.0 0.6104483
vn -0.99512035 0.0 0.09866849
vn -0.9906885 0.0 0.13614786
vn -0.9775999 0.0 0.21047175
vn -0.95894355 0.0 0.283597
vn -0.9348257 0.0 0.35510692
vn -0.90538365 0.0 0.42459446
vn -0.87078506 0.0 0.49166393
vn -0.831227 0.0 0.5559332
vn -0.7869351 0.0 0.6170359
vn -0.7381611 0.0 0.6746245
vn -0.685183 0.0 0.728371
vn -0.6283026 0.0 0.7779691
vn -0.5678436 0.0 0.82313645
vn -0.50415087 0.0 0.86361563
vn -0.43758664 0.0 0.89917624
vn -0.36853 0.0 0.92961586
vn -0.29737484 0.0 0.9547608
vn -0.2245259 0.0 0.9744681
vn -0.15039821 0.0 0.98862547
vn -0.07541374 0.0 0.9971524
vn 0.0000004 0.0 1.0
vn 0.07541387 0.0 0.9971524
vn 0.15039788 0.0 0.9886255
vn 0.22452593 0.0 0.9744681
vn 0.29737496 0.0 0.95476073
vn 0.36853012 0.0 0.9296158
vn 0.43758664 0.0 0.89917624
vn 0.5041513 0.0 0.86361545
vn 0.567844 0.0 0.82313627
vn 0.6283026 0.0 0.7779691
vn 0.68518305 0.0 0.7283709
vn 0.73816115 0.0 0.6746244
vn 0.786935 0.0 0.617036
vn 0.83122706 0.0 0.555933
vn 0.87078506 0.0 0.49166387
vn 0.9053837 0.0 0.4245943
vn 0.9348258 0.0 0.35510686
vn 0.95894337 0.0 0.28359762
vn 0.9776 0.0 0.2104716
vn 0.9906886 0.0 0.1361476
vn 0.99512035 0.0 0.09866876
vn 0.061048217 0.0 -0.99813485
f 42//44 83//44 167//44 165//44
f 83//46 84//47 168//47 167//46
f 84//47 85//48 169//48 168//47
f 85//48 86//49 170//49 169//48
f 86//49 87//50 171//50 170//49
f 87//50 88//51 172//51 171//50
f 88//51 89//52 173//52 172//51
f 89//52 90//53 174//53 173//52
f 90//53 91//54 175//54 174//53
f 91//54 92//55 176//55 175//54
f 92//55 93//56 177//56 176//55
f 93//56 94//57 178//57 177//56
f 94//57 95//58 179//58 178//57
f 95//58 96//59 180//59 179//58
f 96//59 97//60 181//60 180//59
f 97//60 98//61 182//61 181//60
f 98//61 99//62 183//62 182//61
f 99//62 100//63 184//63 183//62
f 100//63 101//64 185//64 184//63
f 101//64 102//65 186//65 185//64
f 102//65 103//66 187//66 186//65
f 103//66 104//67 188//67 187//66
f 104//67 105//68 189//68 188//67
f 105//68 106//69 190//69 189//68
f 106//69 107//70 191//70 190//69
f 107//70 108//71 192//71 191//70
f 108//71 109//72 193//72 192//71
f 109//72 110//73 194//73 193//72
f 110//73 111//74 195//74 194//73
f 111//74 112//75 196//75 195//74
f 112//75 113//76 197//76 196//75
f 113//76 114//77 198//77 197//76
f 114//77 115//78 199//78 198//77
f 115//78 116//79 200//79 199//78
f 116//79 117//80 201//80 200//79
f 117//80 118//81 202//81 201//80
f 118//81 119//82 203//82 202//81
f 119//82 120//83 204//83 203//82
f 120//83 121//84 205//84 204//83
f 121//84 122//85 206//85 205//84
f 122//85 123//86 207//86 206//85
f 123//87 82//87 166//87 207//87
g wall_1_5
usemtl wall_1_1
v 3.7300804 350.0 37.619858
v 10.286604 350.0 74.85124
v 19.632217 350.0 111.482155
v 31.713694 350.0 147.30396
v 46.462223 350.0 182.11266
v 63.79387 350.0 215.71008
v 83.60981 350.0 247.9047
v 105.79724 350.0 278.5132
v 130.2298 350.0 307.36136
v 156.76831 350.0 334.2848
v 185.26166 350.0 359.13016
v 215.54756 350.0 381.75598
v 247.45352 350.0 402.03345
v 280.7978 350.0 419.847
v 315.3906 350.0 435.0952
v 351.03473 350.0 447.6912
v 387.52728 350.0 457.5633
v 424.6604 350.0 464.65518
v 462.22266 350.0 468.92657
v 500.00003 350.0 470.35306
v 537.7774 350.0 468.92657
v 575.3396 350.0 464.65518
v 612.4728 350.0 457.56326
v 648.9653 350.0 447.6912
v 684.6095 350.0 435.09515
v 719.2022 350.0 419.847
v 752.5466 350.0 402.0334
v 784.4525 350.0 381.75595
v 814.7384 350.0 359.13013
v 843.2317 350.0 334.28473
v 869.77026 350.0 307.3613
v 894.20276 350.0 278.51315
v 916.39026 350.0 247.90463
v 936.2062 350.0 215.71002
v 953.5378 350.0 182.1127
v 968.28625 350.0 147.304
v 980.3678 350.0 111.48219
v 989.71344 350.0 74.851166
v 996.2699 350.0 37.61978
vn 0.0 1.0 0.0
f 246//88 166//88 125//88
f 246//88 125//88 124//88
f 246//88 124//88 126//88
f 246//88 126//88 127//88
f 246//88 127//88 128//88
f 245//88 246//88 128//88
f 245//88 128//88 129//88
f 244//88 245//88 129//88
f 244//88 129//88 130//88
f 243//88 244//88 130//88
f 243//88 130//88 131//88
f 242//88 243//88 131//88
f 242//88 131//88 132//88
f 241//88 242//88 132//88
f 241//88 132//88 133//88
f 240//88 241//88 133//88
f 240//88 133//88 134//88
f 239//88 240//88 134//88
f 239//88 134//88 135//88
f 238//88 239//88 135//88
f 238//88 135//88 136//88
f 237//88 238//88 136//88
f 237//88 136//88 137//88
f 236//88 237//88 137//88
f 236//88 137//88 138//88
f 235//88 236//88 138//88
f 235//88 138//88 139//88
f 234//88 235//88 139//88
f 234//88 139//88 140//88
f 233//88 234//88 140//88
f 233//88 140//88 141//88
f 232//88 233//88 141//88
f 232//88 141//88 142//88
f 231//88 232//88 142//88
f 231//88 142//88 143//88
f 230//88 231//88 143//88
f 230//88 143//88 144//88
f 229//88 230//88 144//88
f 229//88 144//88 145//88
f 228//88 229//88 145//88
f 228//88 145//88 146//88
f 227//88 228//88 146//88
f 227//88 146//88 147//88
f 226//88 227//88 147//88
f 226//88 147//88 148//88
f 225//88 226//88 148//88
f 225//88 148//88 149//88
f 224//88 225//88 149//88
f 224//88 149//88 150//88
f 223//88 224//88 150//88
f 223//88 150//88 151//88
f 222//88 223//88 151//88
f 222//88 151//88 152//88
f 221//88 222//88 152//88
f 221//88 152//88 153//88
f 220//88 221//88 153//88
f 220//88 153//88 154//88
f 219//88 220//88 154//88
f 219//88 154//88 155//88
f 218//88 219//88 155//88
f 218//88 155//88 156//88
f 217//88 218//88 156//88
f 217//88 156//88 157//88
f 216//88 217//88 157//88
f 216//88 157//88 158//88
f 215//88 216//88 158//88
f 215//88 158//88 159//88
f 214//88 215//88 159//88
f 214//88 159//88 160//88
f 213//88 214//88 160//88
f 213//88 160//88 161//88
f 212//88 213//88 161//88
f 212//88 161//88 162//88
f 211//88 212//88 162//88
f 211//88 162//88 163//88
f 210//88 211//88 163//88
f 210//88 163//88 164//88
f 210//88 164//88 165//88
f 210//88 165//88 208//88
f 210//88 208//88 209//88
g wall_1_6
usemtl wall_1_1
f 206//88 207//88 166//88
f 206//88 166//88 246//88
f 206//88 246//88 245//88
f 206//88 245//88 244//88
f 206//88 244//88 243//88
f 205//88 206//88 243//88
f 205//88 243//88 242//88
f 204//88 205//88 242//88
f 204//88 242//88 241//88
f 203//88 204//88 241//88
f 203//88 241//88 240//88
f 202//88 203//88 240//88
f 202//88 240//88 239//88
f 201//88 202//88 239//88
f 201//88 239//88 238//88
f 200//88 201//88 238//88
f 200//88 238//88 237//88
f 199//88 200//88 237//88
f 199//88 237//88 236//88
f 198//88 199//88 236//88
f 198//88 236//88 235//88
f 197//88 198//88 235//88
f 197//88 235//88 234//88
f 196//88 197//88 234//88
f 196//88 234//88 233//88
f 195//88 196//88 233//88
f 195//88 233//88 232//88
f 194//88 195//88 232//88
f 194//88 232//88 231//88
f 193//88 194//88 231//88
f 193//88 231//88 230//88
f 192//88 193//88 230//88
f 192//88 230//88 229//88
f 191//88 192//88 229//88
f 191//88 229//88 228//88
f 190//88 191//88 228//88
f 190//88 228//88 227//88
f 189//88 190//88 227//88
f 189//88 227//88 226//88
f 188//88 189//88 226//88
f 188//88 226//88 225//88
f 187//88 188//88 225//88
f 187//88 225//88 224//88
f 186//88 187//88 224//88
f 186//88 224//88 223//88
f 185//88 186//88 223//88
f 185//88 223//88 222//88
f 184//88 185//88 222//88
f 184//88 222//88 221//88
f 183//88 184//88 221//88
f 183//88 221//88 220//88
f 182//88 183//88 220//88
f 182//88 220//88 219//88
f 181//88 182//88 219//88
f 181//88 219//88 218//88
f 180//88 181//88 218//88
f 180//88 218//88 217//88
f 179//88 180//88 217//88
f 179//88 217//88 216//88
f 178//88 179//88 216//88
f 178//88 216//88 215//88
f 177//88 178//88 215//88
f 177//88 215//88 214//88
f 176//88 177//88 214//88
f 176//88 214//88 213//88
f 175//88 176//88 213//88
f 175//88 213//88 212//88
f 174//88 175//88 212//88
f 174//88 212//88 211//88
f 173//88 174//88 211//88
f 173//88 211//88 210//88
f 172//88 173//88 210//88
f 172//88 210//88 209//88
f 171//88 172//88 209//88
f 171//88 209//88 208//88
f 170//88 171//88 208//88
f 170//88 208//88 165//88
f 170//88 165//88 167//88
f 170//88 167//88 168//88
f 170//88 168//88 169//88
